<svg width="64" height="64" viewBox="0 0 64 64" fill="none" xmlns="http://www.w3.org/2000/svg">
<path fill-rule="evenodd" clip-rule="evenodd" d="M35.3754 58.7911C48.694 57.1301 59 45.7686 59 32C59 24.9694 56.3128 18.5664 51.9095 13.7621L35.3754 58.7911ZM47.1069 9.61857L32.474 51.1104H31.8896L17.1875 9.42226C21.4403 6.62652 26.5302 5.00001 32 5.00001C37.5966 5.00001 42.7955 6.70281 47.1069 9.61857ZM12.3512 13.4817C7.79347 18.3159 5 24.8317 5 32C5 45.8993 15.5025 57.3455 29.0046 58.8357L12.3512 13.4817ZM64 32C64 49.6731 49.6731 64 32 64C14.3269 64 0 49.6731 0 32C0 14.3269 14.3269 1.28746e-05 32 1.28746e-05C49.6731 1.28746e-05 64 14.3269 64 32Z" fill="#FFAD00"/>
</svg>
